<svg width="150" height="150" viewBox="0 0 150 150" fill="none" xmlns="http://www.w3.org/2000/svg">
<path d="M75 0C33.5875 0 0 34.4302 0 76.896C0 110.871 21.4875 139.694 51.2937 149.864C55.0375 150.575 56.25 148.191 56.25 146.167V131.851C35.3875 136.503 31.0438 122.777 31.0438 122.777C27.6313 113.889 22.7125 111.525 22.7125 111.525C15.9062 106.751 23.2313 106.853 23.2313 106.853C30.7625 107.392 34.725 114.78 34.725 114.78C41.4125 126.532 52.2688 123.136 56.55 121.169C57.2188 116.203 59.1625 112.806 61.3125 110.89C44.6563 108.936 27.1437 102.342 27.1437 72.8846C27.1437 64.4837 30.075 57.6272 34.8688 52.2444C34.0938 50.3028 31.525 42.4786 35.6 31.8926C35.6 31.8926 41.9 29.8292 56.2312 39.7745C62.2125 38.0699 68.625 37.2177 75 37.1856C81.375 37.2177 87.7937 38.0699 93.7875 39.7745C108.106 29.8292 114.394 31.8926 114.394 31.8926C118.475 42.4851 115.906 50.3092 115.131 52.2444C119.944 57.6272 122.85 64.4901 122.85 72.8846C122.85 102.419 105.306 108.923 88.6062 110.826C91.2937 113.21 93.75 117.888 93.75 125.065V146.167C93.75 148.211 94.95 150.614 98.7562 149.858C128.537 139.675 150 110.858 150 76.896C150 34.4302 116.419 0 75 0Z" fill="black"/>
</svg>
