<svg width="150" height="150" viewBox="0 0 150 150" fill="none" xmlns="http://www.w3.org/2000/svg">
<path d="M74.9999 0.000549316C33.5784 0.000549316 6.10352e-05 33.5788 6.10352e-05 75.0004C6.10352e-05 116.422 33.5784 150 74.9999 150C116.421 150 150 116.422 150 75.0004C150 33.5788 116.421 0.000549316 74.9999 0.000549316ZM54.9898 111.259H38.5228V58.0593H54.9898V111.259ZM46.6779 51.0923C41.2999 51.0923 36.9402 46.697 36.9402 41.276C36.9402 35.8544 41.3005 31.4594 46.6779 31.4594C52.0552 31.4594 56.415 35.8544 56.415 41.276C56.4153 46.6973 52.0555 51.0923 46.6779 51.0923ZM116.7 111.259H100.313V83.3337C100.313 75.6745 97.4034 71.3991 91.347 71.3991C84.7557 71.3991 81.3123 75.852 81.3123 83.3337V111.259H65.5186V58.0593H81.3123V65.2244C81.3123 65.2244 86.0631 56.4365 97.3437 56.4365C108.625 56.4365 116.7 63.3245 116.7 77.5738L116.7 111.259Z" fill="url(#paint0_linear)"/>
<defs>
<linearGradient id="paint0_linear" x1="21.967" y1="21.9675" x2="128.033" y2="128.033" gradientUnits="userSpaceOnUse">
<stop/>
<stop offset="1"/>
</linearGradient>
</defs>
</svg>
