<svg width="150" height="150" viewBox="0 0 150 150" fill="none" xmlns="http://www.w3.org/2000/svg">
<path d="M150 75C150 116.421 116.421 150 75 150C33.5786 150 0 116.421 0 75C0 33.5786 33.5786 0 75 0C116.421 0 150 33.5786 150 75ZM12.5134 75C12.5134 109.51 40.4896 137.487 75 137.487C109.51 137.487 137.487 109.51 137.487 75C137.487 40.4896 109.51 12.5134 75 12.5134C40.4896 12.5134 12.5134 40.4896 12.5134 75Z" fill="black"/>
<rect x="2.521" y="2.521" width="143.697" height="143.697" rx="71.8487" fill="black"/>
<g clip-path="url(#clip0)">
<path d="M33.878 52.2907L23.9988 70.4592C23.3573 71.5839 23.0494 72.9105 23.0494 74.3236C23.0494 75.7367 23.3573 77.0633 23.9988 78.2169L46.9904 120.466H70.9314L33.878 52.2907ZM46.9904 28.1813L36.6493 47.1573L48.6327 69.1903L70.9571 28.1813H46.9904ZM114.862 96.3566L124.741 78.188C125.382 77.0633 125.69 75.7367 125.69 74.3236C125.69 72.9105 125.382 71.5839 124.741 70.4304L101.749 28.1813H77.8084L114.862 96.3566ZM101.749 120.466L112.09 101.49L100.107 79.457L77.7827 120.466H101.749Z" fill="#F4F4F4"/>
</g>
<defs>
<clipPath id="clip0">
<rect width="102.641" height="92.377" fill="white" transform="translate(23.0494 28.1813)"/>
</clipPath>
</defs>
</svg>
